<svg width="20" height="20" viewBox="0 0 533.5 544.3" xmlns="http://www.w3.org/2000/svg">
  <path fill="#4285F4" d="M533.5 278.4c0-18.5-1.6-37.3-4.9-55.4H272v104.8h146.9c-6.3 34.3-25.1 63.4-53.5 83.2v68h86.4c50.6-46.6 81.7-115.4 81.7-200.6z"/>
  <path fill="#34A853" d="M272 544.3c72.9 0 134-24.1 178.7-65.4l-86.4-68c-24.2 16.2-55.1 25.7-92.3 25.7-70.8 0-130.8-47.9-152.3-112.1H31.2v70.7C75.7 486.7 167.9 544.3 272 544.3z"/>
  <path fill="#FBBC05" d="M119.7 324.5c-10.7-32-10.7-66.4 0-98.4V155.4H31.2c-39.4 78.4-39.4 170.1 0 248.5l88.5-79.4z"/>
  <path fill="#EA4335" d="M272 107.7c39.6 0 75.2 13.6 103.2 40.4l77.4-77.4C405.6 24.3 344.9 0 272 0 167.9 0 75.7 57.6 31.2 155.4l88.5 70.7C141.2 155.6 201.2 107.7 272 107.7z"/>
</svg>
